<svg preserveAspectRatio="none" overflow="visible" style="display: block;" width="18.8345" height="17.1405" viewBox="0 0 18.8345 17.1405" fill="none" xmlns="http://www.w3.org/2000/svg">
<g id="vector">
<path d="M12.6014 0C13.0156 0 13.3514 0.335786 13.3514 0.75V3.75C13.3514 4.16421 13.0156 4.5 12.6014 4.5C12.1872 4.49999 11.8514 4.16421 11.8514 3.75V2.92615C10.2274 2.83928 8.60011 2.83901 6.9764 2.9259V1.42395C8.6002 1.33985 10.2274 1.34009 11.8514 1.42419V0.75C11.8514 0.335791 12.1872 6.70036e-06 12.6014 0Z" fill="#B8FE50"/>
<path fill-rule="evenodd" clip-rule="evenodd" d="M0.330162 13.6253C0.584923 15.2828 1.90832 16.5688 3.57088 16.7767C7.45143 17.2619 11.3785 17.2618 15.2602 16.7766C16.922 16.5672 18.2454 15.2818 18.5002 13.6253C18.9194 10.904 18.944 8.12446 18.5759 5.39587C18.5493 5.19646 18.5213 4.99712 18.4887 4.79858C18.2052 3.1795 16.8972 1.93063 15.2613 1.72461C15.2581 1.7242 15.2548 1.72412 15.2515 1.72375C15.1182 1.70711 14.9848 1.69104 14.8514 1.67554V3.18591C14.9269 3.19498 15.0025 3.20471 15.0781 3.21338C16.0587 3.33872 16.8414 4.08804 17.0112 5.05762C17.0409 5.23663 17.0653 5.4167 17.0893 5.59656C17.1889 6.33488 16.6065 7.00121 15.8488 7.00122H2.98141C2.22378 7.00119 1.64147 6.33364 1.74105 5.59534C1.76308 5.43009 1.78609 5.26693 1.81124 5.10522L1.81149 5.10388C1.96435 4.1091 2.75842 3.33758 3.7557 3.21289C3.82924 3.2037 3.90283 3.19475 3.9764 3.18591V3.75C3.9764 4.16421 4.31219 4.49999 4.7264 4.5C5.14062 4.5 5.4764 4.16421 5.4764 3.75V0.75C5.4764 0.335786 5.14062 0 4.7264 0C4.31219 6.70036e-06 3.9764 0.335791 3.9764 0.75V1.67554C3.84074 1.69129 3.70509 1.70754 3.56954 1.72449C1.90732 1.93232 0.584166 3.21794 0.329063 4.875C0.301813 5.0502 0.277254 5.22419 0.254356 5.39587C-0.114491 8.12961 -0.0761522 10.8986 0.330162 13.6253ZM2.98141 8.50122C2.44341 8.50121 1.94301 8.34708 1.52047 8.08218C1.44427 9.85668 1.54156 11.6368 1.81271 13.3969C1.96554 14.3917 2.75962 15.1635 3.75692 15.2881C7.39642 15.7432 11.0776 15.7575 14.7209 15.3309L15.0734 15.2881C16.0712 15.1621 16.8649 14.3903 17.0177 13.3972C17.2888 11.6371 17.3859 9.85674 17.3097 8.08228C16.8871 8.34712 16.3868 8.50122 15.8488 8.50122H2.98141Z" fill="#B8FE50"/>
</g>
</svg>
