<svg preserveAspectRatio="none" overflow="visible" style="display: block;" width="25.1119" height="25.1119" viewBox="0 0 25.1119 25.1119" fill="none" xmlns="http://www.w3.org/2000/svg">
<path id="Emoji" d="M12.5466 17.1549C10.5784 17.1549 8.48881 16.875 6.58582 16.3899C6.23134 15.8489 5.97015 15.2705 5.84888 14.6828C7.85448 15.2519 10.1866 15.6437 12.556 15.6437C14.9254 15.6437 17.2575 15.2519 19.2724 14.6828C19.1325 15.2705 18.8806 15.8489 18.5354 16.3899C16.6325 16.8657 14.5429 17.1549 12.556 17.1549H12.5466ZM12.5466 20.9515C16.7631 20.9515 20.1493 17.8545 20.6157 14.1791C20.7183 13.4422 20.2332 13.1063 19.5802 13.2929C17.2108 13.9925 14.9907 14.3843 12.5466 14.3843C10.1026 14.3843 7.90112 13.9925 5.52239 13.2929C4.8694 13.1063 4.39366 13.4422 4.48694 14.1791C4.94403 17.8545 8.3209 20.9515 12.5466 20.9515ZM16.1847 11.4552C16.959 11.4552 17.6493 10.7556 17.6493 9.76679C17.6493 8.77799 16.959 8.06903 16.1847 8.06903C15.4104 8.06903 14.7295 8.77799 14.7295 9.76679C14.7295 10.7556 15.4104 11.4552 16.1847 11.4552ZM8.88993 11.4552C9.67351 11.4552 10.3638 10.7556 10.3638 9.76679C10.3638 8.77799 9.67351 8.06903 8.88993 8.06903C8.10634 8.06903 7.45336 8.77799 7.45336 9.76679C7.45336 10.7556 8.11567 11.4552 8.88993 11.4552ZM12.556 22.9757C6.77239 22.9757 2.13619 18.3396 2.13619 12.5466C2.13619 6.75373 6.76306 2.12687 12.5466 2.12687C18.3302 2.12687 22.9851 6.76306 22.9851 12.556C22.9851 18.3489 18.3489 22.9851 12.556 22.9851V22.9757ZM12.556 25.1026C19.4216 25.1026 25.1119 19.4123 25.1119 12.5466C25.1119 5.68097 19.4216 0 12.5466 0C5.67164 0 0 5.6903 0 12.556C0 19.4216 5.6903 25.1119 12.556 25.1119V25.1026Z" fill="#222B59" fill-opacity="0.63"/>
</svg>
