<svg preserveAspectRatio="none" overflow="visible" style="display: block;" width="17.5986" height="26.318" viewBox="0 0 17.5986 26.318" fill="none" xmlns="http://www.w3.org/2000/svg">
<path id="Mic" d="M0 12.9991V10.5026C0 10.2484 0.0901863 10.0312 0.270559 9.8508C0.450931 9.67043 0.668198 9.58024 0.92236 9.58024C1.18472 9.58024 1.40609 9.67043 1.58646 9.8508C1.76683 10.0312 1.85702 10.2484 1.85702 10.5026V12.9253C1.85702 14.3191 2.14397 15.5407 2.71789 16.5902C3.2918 17.6396 4.09938 18.4554 5.14062 19.0375C6.18186 19.6114 7.40347 19.8984 8.80546 19.8984C10.2074 19.8984 11.425 19.6114 12.458 19.0375C13.4992 18.4554 14.3068 17.6396 14.8807 16.5902C15.4546 15.5407 15.7416 14.3191 15.7416 12.9253V10.5026C15.7416 10.2484 15.8318 10.0312 16.0122 9.8508C16.1925 9.67043 16.4139 9.58024 16.6763 9.58024C16.9304 9.58024 17.1477 9.67043 17.3281 9.8508C17.5084 10.0312 17.5986 10.2484 17.5986 10.5026V12.9991C17.5986 14.6061 17.2666 16.0327 16.6025 17.2789C15.9466 18.5251 15.0283 19.5253 13.8477 20.2796C12.6671 21.0257 11.2938 21.4643 9.72782 21.5955V24.461H14.2904C14.5528 24.461 14.7742 24.5512 14.9545 24.7315C15.1349 24.9119 15.2251 25.1333 15.2251 25.3956C15.2251 25.6498 15.1349 25.8671 14.9545 26.0474C14.7742 26.2278 14.5528 26.318 14.2904 26.318H3.3082C3.04584 26.318 2.82447 26.2278 2.6441 26.0474C2.46373 25.8671 2.37354 25.6498 2.37354 25.3956C2.37354 25.1333 2.46373 24.9119 2.6441 24.7315C2.82447 24.5512 3.04584 24.461 3.3082 24.461H7.8708V21.5955C6.30484 21.4643 4.93155 21.0257 3.75093 20.2796C2.57031 19.5253 1.64795 18.5251 0.98385 17.2789C0.32795 16.0327 0 14.6061 0 12.9991ZM4.32894 12.5564V4.82087C4.32894 3.87801 4.51751 3.04584 4.89466 2.32435C5.2718 1.59466 5.79652 1.02484 6.46882 0.614906C7.14111 0.204969 7.91999 0 8.80546 0C9.68273 0 10.4575 0.204969 11.1298 0.614906C11.8021 1.02484 12.3268 1.59466 12.704 2.32435C13.0811 3.04584 13.2697 3.87801 13.2697 4.82087V12.5564C13.2697 13.4992 13.0811 14.3355 12.704 15.0652C12.3268 15.7867 11.8021 16.3524 11.1298 16.7623C10.4575 17.1723 9.68273 17.3773 8.80546 17.3773C7.91999 17.3773 7.14111 17.1723 6.46882 16.7623C5.79652 16.3524 5.2718 15.7867 4.89466 15.0652C4.51751 14.3355 4.32894 13.4992 4.32894 12.5564ZM6.18596 12.5564C6.18596 13.4665 6.42372 14.192 6.89925 14.7332C7.38298 15.2743 8.01838 15.5448 8.80546 15.5448C9.59254 15.5448 10.2238 15.2743 10.6994 14.7332C11.1749 14.192 11.4127 13.4665 11.4127 12.5564V4.82087C11.4127 3.9108 11.1749 3.18522 10.6994 2.6441C10.2238 2.10298 9.59254 1.83242 8.80546 1.83242C8.01838 1.83242 7.38298 2.10298 6.89925 2.6441C6.42372 3.18522 6.18596 3.9108 6.18596 4.82087V12.5564Z" fill="#222B59" fill-opacity="0.63"/>
</svg>
